<?xml version="1.0" encoding="iso-8859-1"?>

<!DOCTYPE svg PUBLIC "-//W3C//DTD SVG 1.1//EN" "http://www.w3.org/Graphics/SVG/1.1/DTD/svg11.dtd">
<!-- Uploaded to: SVG Repo, www.svgrepo.com, Generator: SVG Repo Mixer Tools -->
<svg fill="#000000" version="1.1" id="Layer_1" xmlns="http://www.w3.org/2000/svg" xmlns:xlink="http://www.w3.org/1999/xlink" 
	 width="800px" height="800px" viewBox="0 0 72.454 39.641"
	 xml:space="preserve">
<path d="M70.545,12.457H35.784v-0.266c0-0.698,0-2.572,0.76-4.227c0.893-1.939,2.524-2.875,4.987-2.875l9.952-0.004
	c1.482-0.035,3.686-1.068,3.686-3.737C55.168,0.601,54.57,0,53.829,0c-0.738,0-1.341,0.601-1.341,1.348
	c0,0.65-0.362,1.004-1.075,1.049h-9.882c-4.44,0-6.489,2.413-7.418,4.437c-1.009,2.194-1.009,4.498-1.009,5.364v0.26H1.909
	C0.853,12.457,0,13.314,0,14.37v23.354c0,1.059,0.853,1.915,1.909,1.915h68.636c1.056,0,1.908-0.856,1.908-1.915V14.37
	C72.454,13.314,71.601,12.457,70.545,12.457z M34.113,17.682c0-0.251,0.206-0.458,0.456-0.458h3.316c0.25,0,0.451,0.207,0.451,0.458
	v3.326c0,0.256-0.201,0.458-0.451,0.458h-3.316c-0.25,0-0.456-0.202-0.456-0.458V17.682z M26.878,17.682
	c0-0.251,0.201-0.458,0.456-0.458h3.312c0.249,0,0.455,0.207,0.455,0.458v3.326c0,0.256-0.206,0.458-0.455,0.458h-3.312
	c-0.255,0-0.456-0.202-0.456-0.458V17.682z M26.878,24.386c0-0.251,0.201-0.458,0.456-0.458h3.312c0.249,0,0.455,0.207,0.455,0.458
	v3.324c0,0.251-0.206,0.457-0.455,0.457h-3.312c-0.255,0-0.456-0.206-0.456-0.457V24.386z M19.644,17.682
	c0-0.251,0.201-0.458,0.452-0.458h3.316c0.25,0,0.451,0.207,0.451,0.458v3.326c0,0.256-0.201,0.458-0.451,0.458h-3.316
	c-0.25,0-0.452-0.202-0.452-0.458V17.682z M19.644,24.386c0-0.251,0.201-0.458,0.452-0.458h3.316c0.25,0,0.451,0.207,0.451,0.458
	v3.324c0,0.251-0.201,0.457-0.451,0.457h-3.316c-0.25,0-0.452-0.206-0.452-0.457V24.386z M12.404,17.682L12.404,17.682
	c0.001-0.251,0.207-0.458,0.457-0.458h3.312c0.25,0,0.456,0.207,0.456,0.458v3.326c0,0.256-0.206,0.458-0.456,0.458H12.86
	c-0.25,0-0.456-0.202-0.456-0.458V17.682z M12.404,24.386L12.404,24.386c0.001-0.251,0.207-0.458,0.457-0.458h3.312
	c0.25,0,0.456,0.207,0.456,0.458v3.324c0,0.251-0.206,0.457-0.456,0.457H12.86c-0.25,0-0.456-0.206-0.456-0.457V24.386z
	 M8.938,34.871H5.621c-0.25,0-0.451-0.207-0.451-0.458v-3.324c0-0.253,0.201-0.458,0.451-0.458h3.316
	c0.249,0,0.451,0.204,0.451,0.458v3.324h0.001C9.389,34.664,9.187,34.871,8.938,34.871z M8.938,28.167H5.621
	c-0.25,0-0.451-0.206-0.451-0.457v-3.324c0-0.251,0.201-0.458,0.451-0.458h3.316c0.249,0,0.451,0.207,0.451,0.458v3.324h0.001
	C9.389,27.961,9.187,28.167,8.938,28.167z M8.938,21.466H5.621c-0.25,0-0.451-0.202-0.451-0.458v-3.326
	c0-0.251,0.201-0.458,0.451-0.458h3.316c0.249,0,0.451,0.207,0.451,0.458v3.326h0.001C9.389,21.264,9.187,21.466,8.938,21.466z
	 M38.336,34.413c0,0.251-0.201,0.458-0.451,0.458H12.86c-0.25,0-0.456-0.207-0.456-0.458v-3.324c0-0.253,0.206-0.458,0.456-0.458
	h25.025c0.25,0,0.451,0.204,0.451,0.458V34.413z M45.575,34.413c0,0.251-0.205,0.458-0.455,0.458h-3.316
	c-0.25,0-0.451-0.207-0.451-0.458v-6.246h-6.783c-0.25,0-0.456-0.206-0.456-0.457v-3.324c0-0.251,0.206-0.458,0.456-0.458H45.12
	c0.25,0,0.455,0.207,0.455,0.458V34.413z M45.575,21.008c0,0.256-0.205,0.458-0.455,0.458h-3.316c-0.25,0-0.451-0.202-0.451-0.458
	v-3.326c0-0.251,0.201-0.458,0.451-0.458h3.316c0.25,0,0.455,0.207,0.455,0.458V21.008z M52.81,34.413
	c0,0.251-0.206,0.458-0.456,0.458h-3.311c-0.252,0-0.457-0.207-0.457-0.458v-3.324c0-0.253,0.205-0.458,0.457-0.458h3.311
	c0.25,0,0.456,0.204,0.456,0.458V34.413z M52.81,27.71c0,0.251-0.206,0.457-0.456,0.457h-3.311c-0.252,0-0.457-0.206-0.457-0.457
	v-3.324c0-0.251,0.205-0.458,0.457-0.458h3.311c0.25,0,0.456,0.207,0.456,0.458V27.71z M52.81,21.008
	c0,0.256-0.206,0.458-0.456,0.458h-3.311c-0.252,0-0.457-0.202-0.457-0.458v-3.326c0-0.251,0.205-0.458,0.457-0.458h3.311
	c0.25,0,0.456,0.207,0.456,0.458V21.008z M60.043,34.413c0,0.251-0.201,0.458-0.451,0.458h-3.315c-0.25,0-0.45-0.207-0.45-0.458
	v-3.324c0-0.253,0.2-0.458,0.45-0.458h3.316c0.25,0,0.45,0.204,0.45,0.458V34.413z M60.043,27.71c0,0.251-0.201,0.457-0.451,0.457
	h-3.315c-0.25,0-0.45-0.206-0.45-0.457v-3.324c0-0.251,0.2-0.458,0.45-0.458h3.316c0.25,0,0.45,0.207,0.45,0.458V27.71z
	 M60.043,21.008c0,0.256-0.201,0.458-0.451,0.458h-3.315c-0.25,0-0.45-0.202-0.45-0.458v-3.326c0-0.251,0.2-0.458,0.45-0.458h3.316
	c0.25,0,0.45,0.207,0.45,0.458V21.008z M67.284,34.413c0,0.251-0.205,0.458-0.455,0.458h-3.312c-0.25,0-0.455-0.207-0.455-0.458
	v-3.324c0-0.253,0.205-0.458,0.455-0.458h3.312c0.25,0,0.455,0.204,0.455,0.458V34.413z M67.284,27.71
	c0,0.251-0.205,0.457-0.455,0.457h-3.312c-0.25,0-0.455-0.206-0.455-0.457v-3.324c0-0.251,0.205-0.458,0.455-0.458h3.312
	c0.25,0,0.455,0.207,0.455,0.458V27.71z M67.284,21.008c0,0.256-0.205,0.458-0.455,0.458h-3.312c-0.25,0-0.455-0.202-0.455-0.458
	v-3.326c0-0.251,0.205-0.458,0.455-0.458h3.312c0.25,0,0.455,0.207,0.455,0.458V21.008z"/>
</svg>